<svg xmlns="http://www.w3.org/2000/svg" width="179.033" height="132.933" viewBox="0 0 179.033 132.933">
  <g id="iconfinder_development_925895" transform="translate(0.027 -65.896)">
    <g id="Group_20" data-name="Group 20" transform="translate(122.801 81.517)">
      <path id="Path_32" data-name="Path 32" d="M355.054,299.991a3.735,3.735,0,0,1-2.657-1.119,3.694,3.694,0,0,1,.1-5.21L401.311,246.5a3.684,3.684,0,1,1,5.1,5.314l-48.809,47.166A3.813,3.813,0,0,1,355.054,299.991Z" transform="translate(-351.338 -198.307)" fill="#6b3858"/>
      <path id="Path_33" data-name="Path 33" d="M403.8,165.091a3.629,3.629,0,0,1-2.552-1.049L352.4,116.911a3.684,3.684,0,1,1,5.1-5.314l48.809,47.166a3.693,3.693,0,0,1,.1,5.21A3.521,3.521,0,0,1,403.8,165.091Z" transform="translate(-351.273 -110.573)" fill="#6b3858"/>
    </g>
    <g id="Group_21" data-name="Group 21" transform="translate(-0.027 81.517)">
      <path id="Path_34" data-name="Path 34" d="M52.463,299.991a3.629,3.629,0,0,1-2.552-1.049L1.1,251.811a3.684,3.684,0,1,1,5.1-5.314l48.809,47.166a3.693,3.693,0,0,1,.1,5.21A3.6,3.6,0,0,1,52.463,299.991Z" transform="translate(0.027 -198.307)" fill="#6b3858"/>
      <path id="Path_35" data-name="Path 35" d="M3.654,165.091A3.735,3.735,0,0,1,1,163.972a3.693,3.693,0,0,1,.1-5.21L49.911,111.6a3.684,3.684,0,0,1,5.1,5.314L6.241,164.077A3.673,3.673,0,0,1,3.654,165.091Z" transform="translate(0.027 -110.573)" fill="#6b3858"/>
    </g>
    <path id="Path_36" data-name="Path 36" d="M198.969,198.829a3.159,3.159,0,0,1-.979-.14,3.685,3.685,0,0,1-2.552-4.545L230.506,68.59a3.686,3.686,0,1,1,7.1,1.993L202.535,196.137A3.693,3.693,0,0,1,198.969,198.829Z" transform="translate(-127.031)" fill="#6b3858"/>
  </g>
</svg>
