<svg xmlns="http://www.w3.org/2000/svg" width="136" height="123.068" viewBox="0 0 136 123.068">
  <g id="design" transform="translate(-1 -25.245)">
    <g id="Group_11" data-name="Group 11" transform="translate(33.146 25.245)">
      <g id="Group_9" data-name="Group 9" transform="translate(7.264)">
        <path id="Path_22" data-name="Path 22" d="M171.2,125.473a2.063,2.063,0,0,1-1.373-.525l-20.349-18.205a2.06,2.06,0,0,1-.208-2.853l60.715-72.981A15.7,15.7,0,1,1,234.126,51l-61.344,73.736a2.056,2.056,0,0,1-1.432.736A1.454,1.454,0,0,1,171.2,125.473ZM153.7,105l17.277,15.456,59.976-72.093a11.583,11.583,0,1,0-17.808-14.816Z" transform="translate(-148.79 -25.245)" fill="#6b3858"/>
      </g>
      <g id="Group_10" data-name="Group 10" transform="translate(0 77.969)">
        <path id="Path_23" data-name="Path 23" d="M123.61,351.857a2.062,2.062,0,0,1-2.005-2.541l7.2-30.107a2.06,2.06,0,0,1,3.373-1.059l20.405,18.141a2.061,2.061,0,0,1-.549,3.432l-27.611,11.965A2.06,2.06,0,0,1,123.61,351.857Zm8.408-28.341-5.443,22.749,20.864-9.04Z" transform="translate(-121.549 -317.631)" fill="#6b3858"/>
      </g>
    </g>
    <g id="Group_12" data-name="Group 12" transform="translate(1 39.561)">
      <path id="Path_24" data-name="Path 24" d="M134.939,187.682H3.061A2.061,2.061,0,0,1,1,185.621V80.991A2.061,2.061,0,0,1,3.061,78.93H95.368a2.061,2.061,0,0,1,0,4.123H5.12V183.559H134.939a2.061,2.061,0,1,1,0,4.123Z" transform="translate(-1 -78.93)" fill="#6b3858"/>
    </g>
    <g id="Group_13" data-name="Group 13" transform="translate(125.237 39.561)">
      <path id="Path_25" data-name="Path 25" d="M476.591,187.682a2.061,2.061,0,0,1-2.061-2.061V83.053h-5.579a2.061,2.061,0,0,1,0-4.123h7.64a2.061,2.061,0,0,1,2.061,2.061V185.621A2.061,2.061,0,0,1,476.591,187.682Z" transform="translate(-466.89 -78.93)" fill="#6b3858"/>
    </g>
    <g id="Group_14" data-name="Group 14" transform="translate(104.883 68.313)">
      <path id="Path_26" data-name="Path 26" d="M420.616,190.873H392.621a2.061,2.061,0,1,1,0-4.123h27.995a2.061,2.061,0,1,1,0,4.123Z" transform="translate(-390.56 -186.75)" fill="#6b3858"/>
    </g>
    <g id="Group_15" data-name="Group 15" transform="translate(1 68.313)">
      <path id="Path_27" data-name="Path 27" d="M71.445,190.873H3.061a2.061,2.061,0,1,1,0-4.123H71.445a2.061,2.061,0,1,1,0,4.123Z" transform="translate(-1 -186.75)" fill="#6b3858"/>
    </g>
    <g id="Group_16" data-name="Group 16" transform="translate(10.568 47.065)">
      <path id="Path_28" data-name="Path 28" d="M45.811,124.931A8.931,8.931,0,1,1,54.739,116,8.94,8.94,0,0,1,45.811,124.931Zm0-13.739A4.808,4.808,0,1,0,50.619,116,4.814,4.814,0,0,0,45.811,111.193Z" transform="translate(-36.88 -107.07)" fill="#6b3858"/>
    </g>
    <g id="Group_17" data-name="Group 17" transform="translate(32.547 47.065)">
      <path id="Path_29" data-name="Path 29" d="M128.231,124.931A8.931,8.931,0,1,1,137.161,116,8.94,8.94,0,0,1,128.231,124.931Zm0-13.739A4.808,4.808,0,1,0,133.039,116,4.814,4.814,0,0,0,128.231,111.193Z" transform="translate(-119.3 -107.07)" fill="#6b3858"/>
    </g>
    <g id="Group_18" data-name="Group 18" transform="translate(54.528 47.065)">
      <path id="Path_30" data-name="Path 30" d="M210.661,124.931A8.931,8.931,0,1,1,219.589,116,8.94,8.94,0,0,1,210.661,124.931Zm0-13.739A4.808,4.808,0,1,0,215.469,116,4.812,4.812,0,0,0,210.661,111.193Z" transform="translate(-201.73 -107.07)" fill="#6b3858"/>
    </g>
    <g id="Group_19" data-name="Group 19" transform="translate(85.278 37.303)">
      <path id="Path_31" data-name="Path 31" d="M339.877,104.189a2.053,2.053,0,0,1-1.336-.493L317.767,86a2.059,2.059,0,0,1-.248-2.885L327.426,71.2a2.058,2.058,0,0,1,2.923-.248l20.728,17.749a2.06,2.06,0,0,1,.243,2.883l-9.861,11.853a2.058,2.058,0,0,1-1.405.733A.979.979,0,0,1,339.877,104.189Zm-17.885-20,17.635,15.019,7.229-8.691-17.6-15.069Z" transform="translate(-317.043 -70.461)" fill="#6b3858"/>
    </g>
  </g>
</svg>
