<svg id="Group_22" data-name="Group 22" xmlns="http://www.w3.org/2000/svg" width="66.404" height="74.826" viewBox="0 0 66.404 74.826">
  <g id="iconfinder_node_js_682682" transform="translate(0)">
    <path id="Path_43" data-name="Path 43" d="M182.434,212.776a5.675,5.675,0,0,1-2.889-.779l-9.152-5.42c-1.363-.779-.714-1.039-.26-1.2a19.264,19.264,0,0,0,4.154-1.882.653.653,0,0,1,.682.065l7.043,4.187a.962.962,0,0,0,.844,0l27.425-15.838a.858.858,0,0,0,.422-.746V159.517a.858.858,0,0,0-.422-.746l-27.425-15.806a.792.792,0,0,0-.844,0L154.62,158.77a.9.9,0,0,0-.422.746V191.16a.9.9,0,0,0,.422.746l7.5,4.349c4.089,2.045,6.556-.357,6.556-2.759V162.243a.777.777,0,0,1,.811-.779h3.473a.79.79,0,0,1,.779.779v31.222c0,5.452-2.953,8.568-8.114,8.568-1.59,0-2.824,0-6.329-1.72l-7.205-4.154a5.806,5.806,0,0,1-2.889-5V159.517a5.806,5.806,0,0,1,2.889-5l27.425-15.838a6.078,6.078,0,0,1,5.777,0l27.425,15.838a5.806,5.806,0,0,1,2.889,5V191.16a5.806,5.806,0,0,1-2.889,5L185.29,212A5.8,5.8,0,0,1,182.434,212.776Z" transform="translate(-149.2 -137.95)" fill="#fff"/>
    <path id="Path_44" data-name="Path 44" d="M247.508,238.078c-12.008,0-14.508-5.517-14.508-10.126a.769.769,0,0,1,.779-.779h3.538a.8.8,0,0,1,.779.682c.519,3.6,2.142,5.42,9.38,5.42,5.777,0,8.244-1.3,8.244-4.381,0-1.753-.682-3.083-9.672-3.96-7.5-.746-12.138-2.4-12.138-8.406,0-5.517,4.674-8.828,12.5-8.828,8.8,0,13.144,3.051,13.7,9.574a.833.833,0,0,1-.195.617.813.813,0,0,1-.584.26h-3.57a.828.828,0,0,1-.779-.617c-.844-3.8-2.921-5-8.568-5-6.3,0-7.043,2.207-7.043,3.83,0,1.98.876,2.564,9.38,3.7,8.438,1.1,12.43,2.694,12.43,8.6C261.171,234.638,256.173,238.078,247.508,238.078Z" transform="translate(-205.803 -185.062)" fill="#fff"/>
  </g>
</svg>
