<svg id="iconfinder_nodejs-new-black_1012819" xmlns="http://www.w3.org/2000/svg" xmlns:xlink="http://www.w3.org/1999/xlink" width="85.542" height="52.39" viewBox="0 0 85.542 52.39">
  <defs>
    <clipPath id="clip-path">
      <path id="Path_55" data-name="Path 55" d="M132.8,68.43a.981.981,0,0,0-.981,0l-8.127,4.69a.981.981,0,0,0-.491.85v9.387a.982.982,0,0,0,.491.85l8.127,4.693a.982.982,0,0,0,.982,0l8.125-4.693a.982.982,0,0,0,.491-.85V73.97a.981.981,0,0,0-.491-.85Z" transform="translate(-123.197 -68.299)"/>
    </clipPath>
    <clipPath id="clip-path-2">
      <path id="Path_59" data-name="Path 59" d="M132.8,68.43a.981.981,0,0,0-.981,0l-8.127,4.69a.981.981,0,0,0-.491.85v9.387a.982.982,0,0,0,.491.85l8.127,4.693a.982.982,0,0,0,.982,0l8.125-4.693a.982.982,0,0,0,.491-.85V73.97a.981.981,0,0,0-.491-.85Z" transform="translate(-123.197 -68.299)" fill="#fff"/>
    </clipPath>
  </defs>
  <g id="Group_23" data-name="Group 23" transform="translate(32.935 31.309)">
    <path id="Path_45" data-name="Path 45" d="M186.7,189.391a1.62,1.62,0,0,1-.81-.217l-2.579-1.526c-.385-.216-.2-.292-.07-.336a5.137,5.137,0,0,0,1.166-.531.2.2,0,0,1,.192.015l1.981,1.176a.255.255,0,0,0,.239,0l7.725-4.459a.243.243,0,0,0,.118-.209V174.39a.249.249,0,0,0-.12-.213l-7.722-4.455a.242.242,0,0,0-.238,0l-7.72,4.456a.249.249,0,0,0-.123.212V183.3a.237.237,0,0,0,.122.206l2.116,1.223c1.148.574,1.851-.1,1.851-.781v-8.8a.222.222,0,0,1,.224-.223h.98a.223.223,0,0,1,.224.223v8.8a2.141,2.141,0,0,1-2.287,2.411,3.305,3.305,0,0,1-1.779-.484l-2.026-1.166a1.631,1.631,0,0,1-.81-1.409V174.39a1.628,1.628,0,0,1,.81-1.408l7.725-4.464a1.693,1.693,0,0,1,1.624,0l7.724,4.464a1.631,1.631,0,0,1,.811,1.408V183.3a1.635,1.635,0,0,1-.811,1.409l-7.724,4.46A1.621,1.621,0,0,1,186.7,189.391Z" transform="translate(-177.352 -168.31)" fill="#fff"/>
    <path id="Path_46" data-name="Path 46" d="M220.97,209.866c-3.38,0-4.089-1.552-4.089-2.853a.222.222,0,0,1,.223-.223h1a.224.224,0,0,1,.222.189c.151,1.017.6,1.53,2.645,1.53,1.627,0,2.32-.368,2.32-1.232,0-.5-.2-.867-2.725-1.115-2.114-.209-3.421-.676-3.421-2.367,0-1.559,1.314-2.488,3.517-2.488,2.475,0,3.7.859,3.855,2.7a.223.223,0,0,1-.223.243h-1a.223.223,0,0,1-.217-.174c-.241-1.07-.826-1.412-2.412-1.412-1.777,0-1.983.619-1.983,1.083,0,.562.244.725,2.643,1.043,2.374.314,3.5.758,3.5,2.427S223.418,209.866,220.97,209.866Z" transform="translate(-209.238 -194.928)" fill="#fff"/>
  </g>
  <g id="Group_24" data-name="Group 24" transform="translate(52.828 35.409)">
    <path id="Path_47" data-name="Path 47" d="M283.216,191a1.489,1.489,0,1,1-1.489-1.489A1.493,1.493,0,0,1,283.216,191Zm-2.737,0a1.249,1.249,0,1,0,1.244-1.244A1.249,1.249,0,0,0,280.479,191Zm.689-.831h.575c.2,0,.583,0,.583.441a.384.384,0,0,1-.316.41c.229.016.244.166.276.378a1.648,1.648,0,0,0,.087.441h-.354c-.008-.078-.063-.5-.063-.528-.023-.095-.055-.142-.173-.142h-.291v.669h-.323v-1.67Zm.316.733h.26a.225.225,0,0,0,.252-.236c0-.229-.158-.229-.244-.229h-.267v.465Z" transform="translate(-280.238 -189.514)" fill="#699f63"/>
  </g>
  <path id="Path_48" data-name="Path 48" d="M25.376,73.149a.988.988,0,0,0-.495-.86l-8.19-4.714a.968.968,0,0,0-.451-.13h-.085a.977.977,0,0,0-.452.13l-8.19,4.714a.992.992,0,0,0-.5.86L7.036,85.84a.486.486,0,0,0,.247.427.476.476,0,0,0,.491,0l4.867-2.787a1,1,0,0,0,.5-.858v-5.93a.986.986,0,0,1,.494-.856L15.7,74.642a.985.985,0,0,1,.5-.133.969.969,0,0,1,.492.133l2.072,1.194a.986.986,0,0,1,.495.856v5.93a1,1,0,0,0,.5.858l4.866,2.787a.482.482,0,0,0,.495,0,.494.494,0,0,0,.246-.427Z" transform="translate(-7.018 -55.639)" fill="#fff"/>
  <path id="Path_49" data-name="Path 49" d="M251.617,6.447a.495.495,0,0,0-.736.432V19.448a.346.346,0,0,1-.519.3l-2.051-1.182a.989.989,0,0,0-.988,0l-8.194,4.728a.989.989,0,0,0-.495.857v9.459a.99.99,0,0,0,.495.857l8.193,4.732a.99.99,0,0,0,.99,0l8.194-4.732a.99.99,0,0,0,.495-.857V10.032a.99.99,0,0,0-.507-.864Zm-.76,24.056a.247.247,0,0,1-.124.214l-2.813,1.622a.248.248,0,0,1-.247,0l-2.813-1.622a.247.247,0,0,1-.124-.214V27.255a.248.248,0,0,1,.124-.214l2.813-1.625a.247.247,0,0,1,.247,0l2.813,1.625a.248.248,0,0,1,.124.214Z" transform="translate(-193.85 -6.384)" fill="#fff"/>
  <g id="Group_25" data-name="Group 25" transform="translate(67.232 11.921)">
    <path id="Path_50" data-name="Path 50" d="M372.552,76.9a.989.989,0,0,0,.492-.855V73.755a.99.99,0,0,0-.493-.856l-8.141-4.727a.989.989,0,0,0-.991,0l-8.19,4.728a.989.989,0,0,0-.495.857v9.457a.989.989,0,0,0,.5.86l8.14,4.638a.989.989,0,0,0,.97.005l4.923-2.737a.495.495,0,0,0,.006-.861l-8.242-4.731a.5.5,0,0,1-.248-.429V76.995a.5.5,0,0,1,.247-.428l2.565-1.479a.494.494,0,0,1,.494,0l2.567,1.479a.494.494,0,0,1,.247.428v2.332a.495.495,0,0,0,.743.428Z" transform="translate(-354.734 -68.039)" fill="#fff"/>
    <path id="Path_51" data-name="Path 51" d="M394.641,111.485a.189.189,0,0,1,.19,0l1.572.907a.19.19,0,0,1,.095.165v1.815a.19.19,0,0,1-.095.165l-1.572.907a.189.189,0,0,1-.19,0l-1.571-.907a.19.19,0,0,1-.095-.165v-1.815a.19.19,0,0,1,.095-.165Z" transform="translate(-385.581 -103.064)" fill="#fff"/>
  </g>
  <g id="Group_31" data-name="Group 31" transform="translate(22.463 11.971)">
    <path id="XMLID_67_" d="M131.812,68.43a.981.981,0,0,1,.981,0l8.127,4.69a.981.981,0,0,1,.491.85v9.387a.982.982,0,0,1-.491.85L132.793,88.9a.982.982,0,0,1-.982,0l-8.125-4.693a.982.982,0,0,1-.491-.85V73.97a.981.981,0,0,1,.491-.85Z" transform="translate(-123.196 -68.299)" fill="#e4e4e4"/>
    <g id="Group_30" data-name="Group 30" transform="translate(0)">
      <g id="Group_27" data-name="Group 27">
        <g id="Group_26" data-name="Group 26" clip-path="url(#clip-path)">
          <path id="Path_52" data-name="Path 52" d="M131.644,68.434l-8.134,4.69a1,1,0,0,0-.51.85V83.36a.966.966,0,0,0,.229.615l9.145-15.644A.988.988,0,0,0,131.644,68.434Z" transform="translate(-123.038 -68.302)" fill="none"/>
          <path id="Path_53" data-name="Path 53" d="M171.746,110.006a.985.985,0,0,0,.191-.083l8.107-4.693a.948.948,0,0,0,.452-.85V94.993a1.018,1.018,0,0,0-.206-.632Z" transform="translate(-162.359 -89.322)" fill="none"/>
          <path id="Path_54" data-name="Path 54" d="M141.674,73.243l-8.091-4.69a.978.978,0,0,0-.257-.1l-9.145,15.644a1.028,1.028,0,0,0,.276.235l8.139,4.693a.961.961,0,0,0,.782.083l8.544-15.645A.865.865,0,0,0,141.674,73.243Z" transform="translate(-123.992 -68.422)" fill="#fff" opacity="0.66"/>
        </g>
      </g>
      <g id="Group_29" data-name="Group 29">
        <g id="Group_28" data-name="Group 28" clip-path="url(#clip-path-2)">
          <path id="Path_56" data-name="Path 56" d="M123.6,92.958l-.092.053a1,1,0,0,0-.51.85v9.387a1,1,0,0,0,.5.85l8.139,4.693a.962.962,0,0,0,.707.1Z" transform="translate(-123.038 -88.19)" fill="none"/>
          <path id="Path_57" data-name="Path 57" d="M180.411,74.126a.949.949,0,0,0-.455-.85l-8.09-4.69a.975.975,0,0,0-.225-.094l8.771,14.984Z" transform="translate(-162.273 -68.455)" fill="none"/>
          <path id="Path_58" data-name="Path 58" d="M135.127,88.9l8.107-4.693a.948.948,0,0,0,.452-.85v-.037l-8.771-14.984a.99.99,0,0,0-.76.094l-8.042,4.637,8.748,15.938A.983.983,0,0,0,135.127,88.9Z" transform="translate(-125.549 -68.301)" fill="#fff"/>
        </g>
      </g>
    </g>
  </g>
</svg>
