<svg xmlns="http://www.w3.org/2000/svg" width="70.674" height="62.881" viewBox="0 0 70.674 62.881">
  <path id="iconfinder_react_4691292" d="M35.337,26.464a6.3,6.3,0,1,0,6.3,6.3A6.3,6.3,0,0,0,35.337,26.464ZM17.692,45.293l-1.39-.353C5.942,42.321,0,37.878,0,32.751s5.942-9.57,16.3-12.188l1.39-.35.392,1.378A69.289,69.289,0,0,0,22.1,32.127l.3.627-.3.627a68.632,68.632,0,0,0-4.014,10.536l-.392,1.375ZM15.657,23.781c-7.874,2.212-12.707,5.6-12.707,8.97s4.832,6.755,12.707,8.97a73.471,73.471,0,0,1,3.481-8.97,72.888,72.888,0,0,1-3.481-8.97ZM52.982,45.293l-.392-1.381a68.781,68.781,0,0,0-4.017-10.533l-.3-.627.3-.627A68.966,68.966,0,0,0,52.59,21.587l.392-1.378,1.393.35c10.357,2.618,16.3,7.061,16.3,12.191s-5.943,9.57-16.3,12.188ZM51.536,32.751a72.81,72.81,0,0,1,3.481,8.97c7.877-2.214,12.707-5.6,12.707-8.97S62.891,26,55.017,23.781a73,73,0,0,1-3.481,8.97Zm-35.9-8.984-.392-1.375C12.333,12.126,13.216,4.77,17.668,2.2c4.367-2.521,11.378.456,18.726,8l1,1.028-1,1.028a69.355,69.355,0,0,0-7.132,8.737l-.4.568-.692.059a69.663,69.663,0,0,0-11.146,1.8l-1.39.35ZM21.22,4.243a4.109,4.109,0,0,0-2.076.509C16.217,6.44,15.7,12.306,17.716,20.221a73.977,73.977,0,0,1,9.52-1.475,73.168,73.168,0,0,1,6.043-7.491C28.685,6.781,24.335,4.243,21.22,4.243ZM49.457,64.2h0c-4.2,0-9.585-3.16-15.177-8.9l-1-1.028,1-1.028a69.29,69.29,0,0,0,7.129-8.74l.4-.568.689-.059a69.583,69.583,0,0,0,11.152-1.793l1.39-.35.395,1.378c2.906,10.259,2.026,17.618-2.426,20.183a7.009,7.009,0,0,1-3.548.907ZM37.4,54.248c4.594,4.473,8.943,7.011,12.059,7.011h0a4.1,4.1,0,0,0,2.073-.509c2.927-1.687,3.448-7.556,1.428-15.472a73.677,73.677,0,0,1-9.523,1.475A72.659,72.659,0,0,1,37.4,54.248ZM55.037,23.766l-1.39-.35A69.138,69.138,0,0,0,42.5,21.62l-.689-.059-.4-.568a68.949,68.949,0,0,0-7.129-8.737l-1-1.028,1-1.028c7.344-7.539,14.353-10.516,18.726-8,4.452,2.568,5.336,9.924,2.426,20.186l-.395,1.378Zm-11.6-5.021a73.438,73.438,0,0,1,9.523,1.475c2.02-7.915,1.5-13.781-1.428-15.469-2.909-1.681-8.378.9-14.135,6.5a73.175,73.175,0,0,1,6.04,7.491ZM21.22,64.2a7.008,7.008,0,0,1-3.551-.907c-4.452-2.565-5.336-9.921-2.424-20.183l.389-1.378,1.39.35a69.506,69.506,0,0,0,11.146,1.793l.692.059.395.568a69.485,69.485,0,0,0,7.132,8.74l1,1.028-1,1.028C30.8,61.044,25.41,64.2,21.22,64.2Zm-3.5-18.926c-2.02,7.915-1.5,13.784,1.428,15.472,2.906,1.658,8.372-.9,14.135-6.5a73.614,73.614,0,0,1-6.043-7.494,73.549,73.549,0,0,1-9.52-1.475Zm17.621,1.849c-2.424,0-4.915-.106-7.409-.312l-.692-.059-.4-.568q-2.116-3.041-3.975-6.249t-3.434-6.561l-.294-.627.294-.627q1.58-3.35,3.434-6.561c1.219-2.108,2.559-4.211,3.975-6.249l.4-.568.692-.059a87.709,87.709,0,0,1,14.821,0l.689.059.395.568a88.36,88.36,0,0,1,7.412,12.81l.3.627-.3.627a87.166,87.166,0,0,1-7.412,12.81l-.395.568-.689.059c-2.494.206-4.988.312-7.412.312Zm-6.47-3.192a85.529,85.529,0,0,0,12.942,0,85.414,85.414,0,0,0,6.467-11.184,84.174,84.174,0,0,0-6.47-11.184,85.489,85.489,0,0,0-12.939,0A83.858,83.858,0,0,0,22.4,32.751a85.733,85.733,0,0,0,6.47,11.184Z" transform="translate(0 -1.324)" fill="#fff"/>
</svg>
