<svg xmlns="http://www.w3.org/2000/svg" width="67.448" height="63.965" viewBox="0 0 67.448 63.965">
  <path id="iconfinder_redux_4691205" d="M46.747,45.261a4.677,4.677,0,0,0,4.213-4.93,4.853,4.853,0,0,0-4.8-4.632h-.171a4.806,4.806,0,0,0-4.632,4.972,5.131,5.131,0,0,0,1.388,3.241C39.8,49.64,35.379,53.85,28.681,57.388A23.058,23.058,0,0,1,14.786,60a12.114,12.114,0,0,1-8.758-5.053,12.559,12.559,0,0,1-.717-13.305,19.858,19.858,0,0,1,5.9-6.866,27.992,27.992,0,0,1-1.18-4.334C-2.437,39.37-1.17,51.579,2.619,57.349c2.822,4.21,8.592,6.9,14.907,6.9a21.872,21.872,0,0,0,5.18-.545,32.947,32.947,0,0,0,24-18.358ZM61.778,34.733C55.255,27.068,45.651,22.858,34.7,22.858H33.268a4.532,4.532,0,0,0-4.207-2.527h-.126a4.713,4.713,0,0,0-4.629,4.927,4.852,4.852,0,0,0,4.8,4.632h.208a4.752,4.752,0,0,0,4.21-2.948h1.56a32.612,32.612,0,0,1,18.235,5.6,23.084,23.084,0,0,1,9.095,10.95,11.628,11.628,0,0,1-.126,10.11A12.517,12.517,0,0,1,50.5,60.674a21.982,21.982,0,0,1-8.339-1.81c-1.009.838-2.7,2.229-3.918,3.072a27.038,27.038,0,0,0,11.074,2.65c8.212,0,14.314-4.629,16.633-9.095,2.524-5.053,2.316-13.558-4.129-20.843l-.039.084ZM18.24,46.773a4.846,4.846,0,0,0,4.8,4.632h.169a4.8,4.8,0,0,0-.126-9.6h-.171a1.811,1.811,0,0,0-.632.082,31.453,31.453,0,0,1-4.418-19.03A22.859,22.859,0,0,1,22.911,9.55c2.527-3.159,7.285-4.719,10.528-4.8,9.095-.171,12.886,11.161,13.179,15.666l4.21,1.262C49.859,7.867,41.272.621,33.06.621c-7.707,0-14.82,5.6-17.687,13.814-3.915,10.95-1.346,21.475,3.454,29.9a3.725,3.725,0,0,0-.587,2.44Z" transform="translate(0 -0.621)" fill="#fff"/>
</svg>
