<svg xmlns="http://www.w3.org/2000/svg" width="122" height="117.933" viewBox="0 0 122 117.933">
  <g id="adaptive_responsive_design_1_" transform="translate(-1 -2)">
    <g id="Group_3" data-name="Group 3" transform="translate(1 2)">
      <g id="Group_2" data-name="Group 2">
        <path id="Path_16" data-name="Path 16" d="M3.033,75.2A2.034,2.034,0,0,1,1,73.167V8.1A6.107,6.107,0,0,1,7.1,2H116.9A6.107,6.107,0,0,1,123,8.1v6.1a2.033,2.033,0,0,1-4.067,0V8.1A2.039,2.039,0,0,0,116.9,6.067H7.1A2.039,2.039,0,0,0,5.067,8.1V73.167A2.034,2.034,0,0,1,3.033,75.2Z" transform="translate(-1 -2)" fill="#6b3858"/>
      </g>
      <path id="Path_17" data-name="Path 17" d="M34.4,47.867H12.033a2.033,2.033,0,0,1,0-4.067H16.1a6.107,6.107,0,0,0,6.1-6.1V27.533a2.033,2.033,0,1,1,4.067,0V37.7a10.121,10.121,0,0,1-2.037,6.1H34.4a2.033,2.033,0,0,1,0,4.067Z" transform="translate(26.6 70.067)" fill="#6b3858"/>
      <path id="Path_18" data-name="Path 18" d="M59.967,41.333H7.1a6.107,6.107,0,0,1-6.1-6.1v-12.2A2.034,2.034,0,0,1,3.033,21H59.967a2.033,2.033,0,0,1,0,4.067H5.067V35.233A2.039,2.039,0,0,0,7.1,37.267H59.967a2.033,2.033,0,1,1,0,4.067Z" transform="translate(-1 56.267)" fill="#6b3858"/>
    </g>
    <g id="Group_8" data-name="Group 8" transform="translate(66.067 18.267)">
      <g id="Group_5" data-name="Group 5" transform="translate(16.267 8.133)">
        <g id="Group_4" data-name="Group 4">
          <path id="Path_19" data-name="Path 19" d="M23.033,12.067H43.367a2.033,2.033,0,0,0,0-4.067H23.033a2.033,2.033,0,1,0,0,4.067Z" transform="translate(-21 -8)" fill="#6b3858"/>
        </g>
      </g>
      <g id="Group_7" data-name="Group 7" transform="translate(24.4 89.467)">
        <g id="Group_6" data-name="Group 6">
          <path id="Path_20" data-name="Path 20" d="M25.033,32.067H29.1A2.033,2.033,0,1,0,29.1,28H25.033a2.033,2.033,0,1,0,0,4.067Z" transform="translate(-23 -28)" fill="#6b3858"/>
        </g>
      </g>
      <path id="Path_21" data-name="Path 21" d="M63.767,107.667h-36.6A10.176,10.176,0,0,1,17,97.5V16.167A10.176,10.176,0,0,1,27.167,6h36.6A10.176,10.176,0,0,1,73.933,16.167V97.5A10.176,10.176,0,0,1,63.767,107.667Zm-36.6-97.6a6.107,6.107,0,0,0-6.1,6.1V97.5a6.107,6.107,0,0,0,6.1,6.1h36.6a6.107,6.107,0,0,0,6.1-6.1V16.167a6.107,6.107,0,0,0-6.1-6.1Z" transform="translate(-17 -6)" fill="#6b3858"/>
    </g>
  </g>
</svg>
