<svg id="rxjs-1" xmlns="http://www.w3.org/2000/svg" xmlns:xlink="http://www.w3.org/1999/xlink" width="71.86" height="70.856" viewBox="0 0 71.86 70.856">
  <defs>
    <linearGradient id="linear-gradient" y1="0.5" x2="1.172" y2="0.765" gradientUnits="objectBoundingBox">
      <stop offset="0" stop-color="#fff"/>
      <stop offset="0.827" stop-color="#dddfdd"/>
      <stop offset="1" stop-color="#cfcfcf"/>
    </linearGradient>
  </defs>
  <path id="Path_38" data-name="Path 38" d="M19.127,61.653a30.146,30.146,0,0,1-1.048-14.423,50.091,50.091,0,0,1,1.558-6.064,32.814,32.814,0,0,1,17.143-18.7A28.033,28.033,0,0,1,48.2,19.887a14.945,14.945,0,0,0-1.53-1.3c-3.23-2.153-8.047-2.862-10.966.17-.878.907-1.615,1.9-2.437,2.805a8.759,8.759,0,0,1-3.372,2.352,17.626,17.626,0,0,1-3.429.538,7.377,7.377,0,0,0-3.372,1.388,4.468,4.468,0,0,0-1.587,3.287c-.113,1.02-.085,2.068-.142,3.089-.142,3-1.105,3.854-3.259,5.525a8.757,8.757,0,0,0-2.238,2.55c-1.7,3,1.02,6.12,1.162,9.152a4.541,4.541,0,0,1-.255,1.842A6.879,6.879,0,0,1,15.727,52.9a3.315,3.315,0,0,0-.708,2.437,7.832,7.832,0,0,0,1.02,2.465,23.283,23.283,0,0,0,2.919,3.74c.057,0,.113.057.17.113" transform="translate(-14.986 -16.719)" fill="#fff"/>
  <path id="Path_39" data-name="Path 39" d="M79.9,80.559a20.627,20.627,0,0,0,9.294-7.736,22.3,22.3,0,0,0,4.024-17.058c-3.882,8.444-7.424,10.767-7.424,10.767,9.549-14.536.057-23.32.057-23.32,3.882,8.274-1.275,18.361-1.275,18.361C80.237,70.7,74.089,73.957,74.089,73.957c6.857,1.275,11.9-3.344,11.9-3.344C76.157,81.239,65.5,80.729,65.5,80.729c4.477,5.015,11.192,4.59,11.192,4.59-8.784,2.068-17.029-.85-23.8-6.489a37.332,37.332,0,0,1-3.627-3.4s-1.02-1.077-1.218-1.36l-.028-.028c-.142,5.242,5.327,10.116,5.327,10.116A20.386,20.386,0,0,1,42.07,58.316c3.344-8.982,13.459-10.909,13.459-10.909a66.384,66.384,0,0,0,15.443,5.327c14.933,2.494,14.083-4.817,14.083-4.817C85.2,41.626,75.7,34.939,75.7,34.939c-16.916-12.553-32.217-4.449-32.217-4.449a32.814,32.814,0,0,0-17.143,18.7,50.091,50.091,0,0,0-1.558,6.064c-1.445,8.416.737,16.378,5.469,23.462,7.367,10.994,19.325,14.791,19.325,14.791,17.71,6.007,29.809-2.834,29.809-2.834,11.136-7.651,13.374-16.491,13.374-16.491C83.779,81.211,79.9,80.559,79.9,80.559ZM66.07,39.218a1.53,1.53,0,1,1-1.53,1.53A1.524,1.524,0,0,1,66.07,39.218Z" transform="translate(-21.693 -24.744)" fill="#fff"/>
  <path id="Path_40" data-name="Path 40" d="M85,47.876C85.143,41.585,75.65,34.9,75.65,34.9c-16.916-12.524-32.217-4.42-32.217-4.42a32.814,32.814,0,0,0-17.143,18.7A52.552,52.552,0,0,0,24.845,54.7a31.663,31.663,0,0,0-.453,8.076,30.779,30.779,0,0,0,1.162,6.205A32.114,32.114,0,0,0,26.8,72.471c-.028-.085-.17-.708-.17-.708a31.958,31.958,0,0,1-.085-11.221A22.865,22.865,0,0,1,31.419,50.4a16.445,16.445,0,0,1,18.163-5.5s2.55.907,3.429,1.36c.878.425,2.408,1.077,2.408,1.077a66.384,66.384,0,0,0,15.443,5.327C85.851,55.186,85,47.876,85,47.876ZM66.045,42.294a1.53,1.53,0,1,1,1.53-1.53A1.524,1.524,0,0,1,66.045,42.294Z" transform="translate(-21.668 -24.731)" fill="#fff"/>
  <path id="Path_41" data-name="Path 41" d="M98.623,50.444l-9.662-3a1.465,1.465,0,0,0-.85,0s-5.7,1.445-4.7,4.562a12.064,12.064,0,0,0,2.21,3.854l10.626-.51Z" transform="translate(-63.936 -38.691)" fill="url(#linear-gradient)"/>
</svg>
