<svg id="TypeScript-Logo.wine" xmlns="http://www.w3.org/2000/svg" width="101.577" height="24.35" viewBox="0 0 101.577 24.35">
  <path id="path4609" d="M12.527,2.524H7.319V18.616H5.208V2.524H0V.6H12.48V2.524Z" transform="translate(0 -0.318)" fill="#fff"/>
  <path id="path4611" d="M34.252,5.442,28.34,20.362c-1.079,2.674-2.534,3.988-4.457,3.988a5.775,5.775,0,0,1-1.361-.141V22.38a3.993,3.993,0,0,0,1.22.235,2.522,2.522,0,0,0,2.346-1.877L27.12,18.3,22.1,5.442h2.3l3.472,9.9q.07.211.282.985h.094c.047-.188.141-.516.235-.938l3.66-9.947Zm3.472,11.026h-.047v7.788H35.612V5.489h2.064V7.741h.047a4.939,4.939,0,0,1,4.457-2.58A4.714,4.714,0,0,1,46.075,6.9a7.127,7.127,0,0,1,1.408,4.645A7.964,7.964,0,0,1,45.934,16.7a5.3,5.3,0,0,1-4.316,1.924,4.345,4.345,0,0,1-3.894-2.158Zm-.047-5.208v1.783a3.79,3.79,0,0,0,1.032,2.721,3.407,3.407,0,0,0,2.627,1.126,3.462,3.462,0,0,0,2.956-1.454,6.388,6.388,0,0,0,1.079-3.988,5.265,5.265,0,0,0-.985-3.378,3.3,3.3,0,0,0-2.674-1.22A3.668,3.668,0,0,0,38.8,8.117,4.532,4.532,0,0,0,37.677,11.26ZM60.2,12.386H51.1a4.85,4.85,0,0,0,1.173,3.331,3.927,3.927,0,0,0,3.05,1.173,6.157,6.157,0,0,0,3.988-1.454V17.36a7.322,7.322,0,0,1-4.5,1.22,5.354,5.354,0,0,1-4.27-1.736,7.211,7.211,0,0,1-1.548-4.926,7.016,7.016,0,0,1,1.689-4.879A5.394,5.394,0,0,1,54.9,5.161,4.8,4.8,0,0,1,58.79,6.8a6.68,6.68,0,0,1,1.361,4.551v1.032ZM58.086,10.65a4.153,4.153,0,0,0-.845-2.768A2.946,2.946,0,0,0,54.9,6.9a3.33,3.33,0,0,0-2.487,1.032,5.079,5.079,0,0,0-1.267,2.721Zm3.237,7.038V16.281a7.058,7.058,0,0,0,3.941,1.22,4.8,4.8,0,0,0,3.19-.891,2.868,2.868,0,0,0,1.079-2.44,3.072,3.072,0,0,0-.751-2.205,13.124,13.124,0,0,0-3.19-2.252,11.522,11.522,0,0,1-3.472-2.674,4.445,4.445,0,0,1-.751-2.487,4.232,4.232,0,0,1,1.5-3.237A5.639,5.639,0,0,1,66.813,0,9.8,9.8,0,0,1,70.05.563V1.877a8.385,8.385,0,0,0-3.378-.7,4.331,4.331,0,0,0-2.909.938,3.007,3.007,0,0,0-1.079,2.346,3.072,3.072,0,0,0,.751,2.205,13.347,13.347,0,0,0,3.19,2.205A11.049,11.049,0,0,1,70,11.4a4.155,4.155,0,0,1,.845,2.58,4.339,4.339,0,0,1-1.454,3.378,5.7,5.7,0,0,1-4.082,1.314,10.088,10.088,0,0,1-2.158-.282,12.569,12.569,0,0,1-1.83-.7Zm20.409.047a6.636,6.636,0,0,1-3.425.891,5.489,5.489,0,0,1-4.223-1.783,6.82,6.82,0,0,1-1.6-4.739,7.035,7.035,0,0,1,1.83-5.02,6.063,6.063,0,0,1,4.645-1.971,6.83,6.83,0,0,1,2.862.61V7.038a5.743,5.743,0,0,0-3.05-.845,4.641,4.641,0,0,0-3.66,1.642,6.2,6.2,0,0,0-1.408,4.223,6.11,6.11,0,0,0,1.267,4.035,4.105,4.105,0,0,0,3.378,1.5,5.647,5.647,0,0,0,3.378-1.032ZM89.521,6.662A2.235,2.235,0,0,0,88.16,6.24a2.925,2.925,0,0,0-2.534,1.548,7.933,7.933,0,0,0-1.032,4.457V18.3H83.469V5.442h1.126V8.3h.047a4.573,4.573,0,0,1,1.408-2.3,3.2,3.2,0,0,1,2.205-.8,3.582,3.582,0,0,1,1.267.235Zm1.971-4.457a.926.926,0,0,1-.657-.282.955.955,0,0,1-.282-.7.787.787,0,0,1,.282-.657.878.878,0,0,1,.657-.235,1.264,1.264,0,0,1,.7.235.852.852,0,0,1,.282.657.955.955,0,0,1-.282.7A1.034,1.034,0,0,1,91.492,2.205Zm-.563,16.14V5.489H92.1V18.345Zm5.208-2.3H96.09v8.211H94.917V5.489H96.09V8.164h.047a5.125,5.125,0,0,1,4.786-2.956A4.72,4.72,0,0,1,104.769,6.9a6.978,6.978,0,0,1,1.361,4.6,7.938,7.938,0,0,1-1.6,5.208,5.053,5.053,0,0,1-4.176,1.971A4.633,4.633,0,0,1,96.136,16.046ZM96.09,11.26V12.9a4.941,4.941,0,0,0,1.22,3.331,4,4,0,0,0,3.19,1.408,3.744,3.744,0,0,0,3.19-1.689,7.591,7.591,0,0,0,1.22-4.457,6.054,6.054,0,0,0-1.126-3.847,3.692,3.692,0,0,0-3-1.408,4.242,4.242,0,0,0-3.472,1.5,5.437,5.437,0,0,0-1.22,3.519Zm17.219,6.9a4.064,4.064,0,0,1-1.689.422c-1.924,0-2.862-1.126-2.862-3.425V6.522h-2.3V5.442h2.3V2.111c.188-.047.375-.141.563-.188s.375-.141.563-.188V5.489h3.378V6.569h-3.378v8.492a3.334,3.334,0,0,0,.422,1.924,1.669,1.669,0,0,0,1.408.61,3.071,3.071,0,0,0,1.548-.469v1.032Z" transform="translate(-11.731 0)" fill="#fff"/>
</svg>
